<svg xmlns="http://www.w3.org/2000/svg" width="180" height="180">
<style>
  .a{
    fill:#212121;
  }
  .b{
    fill:#f5f5f5;
  }
</style>
    <g class="a">
      <rect width="180" height="180"/>
    </g>
    <g >
      <path class="b" d="m47.7 92l2.3 7.9 -16.5 0 2.3-7.9q1.4-5.2 2.9-10.6t2.9-10.9l0.4 0q1.4 5.5 2.8 10.9t2.9 10.6zm21.6 34.5l-21-64.9 -13.5 0 -21 64.9 12.2 0 5-17.6 21.6 0 5.1 17.6 11.7 0z"/>
      <path class="b" d="m90 126.5l0-39.7 -20.1 0 0-9 31 0 0 48.7 -10.9 0 0 0 0 0zm4.7-57.6q-3.3 0-5.5-2.1t-2.2-5.6 2.2-5.6 5.5-2.1 5.5 2.1 2.2 5.6 -2.2 5.6 -5.5 2.1z"/>
      <path class="b" d="m145.8 126.5l0-55.2 20.4 0 0-9.7 -52.4 0 0 9.7 20.4 0 0 55.2 11.5 0 0 0z"/>
    </g>
</svg>
